<svg width="31" height="31" viewBox="0 0 31 31" fill="none" xmlns="http://www.w3.org/2000/svg">
<path d="M18.7305 21.5511C18.7305 21.5511 21.1599 20.1603 21.7959 19.8261C22.4301 19.4907 23.0871 19.4061 23.486 19.6497C24.0902 20.0193 29.1638 23.3943 29.591 23.6931C30.0182 23.9925 30.224 24.8475 29.6366 25.6851C29.0516 26.5227 26.3528 29.8347 25.2092 29.7993C24.0638 29.7621 19.3017 29.6577 10.3215 20.6751C1.34311 11.6955 1.23691 6.93206 1.20031 5.78666C1.16371 4.64186 4.4757 1.94246 5.3133 1.35686C6.1521 0.771857 7.0083 0.992057 7.3059 1.40366C7.64429 1.87226 10.9803 6.92966 11.3475 7.50926C11.5989 7.90526 11.5065 8.56586 11.1711 9.20066C10.8375 9.83666 9.44669 12.2661 9.44669 12.2661C9.44669 12.2661 10.4271 13.9383 13.7427 17.2533C17.0589 20.5689 18.7305 21.5511 18.7305 21.5511Z" stroke="white" stroke-width="2" stroke-miterlimit="10"/>
</svg>
