<svg width="17" height="17" viewBox="0 0 17 17" fill="none" xmlns="http://www.w3.org/2000/svg">
<path d="M10.3652 11.2755C10.3652 11.2755 11.5799 10.5801 11.8979 10.413C12.215 10.2453 12.5435 10.203 12.743 10.3248C13.0451 10.5096 15.5819 12.1971 15.7955 12.3465C16.0091 12.4962 16.112 12.9237 15.8183 13.3425C15.5258 13.7613 14.1764 15.4173 13.6046 15.3996C13.0319 15.381 10.6508 15.3288 6.16071 10.8375C1.67153 6.34773 1.61843 3.96603 1.60013 3.39333C1.58183 2.82093 3.23782 1.47123 3.65662 1.17843C4.07602 0.885929 4.50412 0.996029 4.65292 1.20183C4.82212 1.43613 6.49011 3.96483 6.67371 4.25463C6.79941 4.45263 6.75321 4.78293 6.58551 5.10033C6.41871 5.41833 5.72331 6.63303 5.72331 6.63303C5.72331 6.63303 6.21351 7.46913 7.87131 9.12663C9.5294 10.7844 10.3652 11.2755 10.3652 11.2755Z" stroke="white" stroke-width="2" stroke-miterlimit="10"/>
</svg>
