<svg width="100" height="100" viewBox="0 0 100 100" fill="none" xmlns="http://www.w3.org/2000/svg">
<path d="M94.9237 5.61914C94.848 5.43632 94.7199 5.27998 94.5555 5.16981C94.3912 5.05963 94.1979 5.00055 94 5H30C29.7349 5.0007 29.4808 5.10596 29.2929 5.29291L5.29285 29.2929C5.10618 29.4811 5.001 29.7352 5 30.0003V94C5 94.2652 5.10536 94.5196 5.29289 94.7071C5.48043 94.8946 5.73478 95 6 95H70L70.0105 94.9979C70.2719 94.9961 70.522 94.8916 70.7071 94.7071L94.7071 70.7071C94.8933 70.5187 94.9985 70.2649 95 70V6C94.9997 5.86928 94.9738 5.73989 94.9237 5.61914ZM29.0696 8.3446C29.1496 8.56495 29.3049 8.74998 29.508 8.86706C29.7111 8.98413 29.949 9.02574 30.1798 8.98454C30.4106 8.94334 30.6194 8.82199 30.7695 8.64187C30.9195 8.46175 31.0012 8.23443 31 8V7H91.5857L69.5857 29H8.41418L29.0696 8.3446ZM8.30005 93C8.37321 92.8182 8.39133 92.619 8.35215 92.427C8.31296 92.2351 8.21821 92.0589 8.07968 91.9203C7.94114 91.7818 7.76493 91.687 7.57297 91.6478C7.38101 91.6086 7.18175 91.6267 7 91.6999V31H29V32C29 32.2652 29.1054 32.5196 29.2929 32.7071C29.4804 32.8946 29.7348 33 30 33C30.2652 33 30.5196 32.8946 30.7071 32.7071C30.8946 32.5196 31 32.2652 31 32V31H69V69H68C67.7348 69 67.4804 69.1054 67.2929 69.2929C67.1054 69.4804 67 69.7348 67 70C67 70.2652 67.1054 70.5196 67.2929 70.7071C67.4804 70.8946 67.7348 71 68 71H69V93H8.30005ZM71 30.4142L92.9999 8.41425L93 69H92C91.7656 68.9988 91.5383 69.0805 91.3582 69.2306C91.178 69.3806 91.0567 69.5894 91.0155 69.8202C90.9743 70.051 91.0159 70.2889 91.1329 70.492C91.25 70.6951 91.435 70.8504 91.6553 70.9304L71 91.5857V30.4142Z" fill="white"/>
<path d="M30 61C29.7348 61 29.4804 61.1054 29.2929 61.2929C29.1054 61.4804 29 61.7348 29 62V64C29 64.2652 29.1054 64.5196 29.2929 64.7071C29.4804 64.8946 29.7348 65 30 65C30.2652 65 30.5196 64.8946 30.7071 64.7071C30.8946 64.5196 31 64.2652 31 64V62C31 61.7348 30.8946 61.4804 30.7071 61.2929C30.5196 61.1054 30.2652 61 30 61Z" fill="white"/>
<path d="M30 53C29.7348 53 29.4804 53.1054 29.2929 53.2929C29.1054 53.4804 29 53.7348 29 54V56C29 56.2652 29.1054 56.5196 29.2929 56.7071C29.4804 56.8946 29.7348 57 30 57C30.2652 57 30.5196 56.8946 30.7071 56.7071C30.8946 56.5196 31 56.2652 31 56V54C31 53.7348 30.8946 53.4804 30.7071 53.2929C30.5196 53.1054 30.2652 53 30 53Z" fill="white"/>
<path d="M30 17C30.2652 17 30.5196 16.8946 30.7071 16.7071C30.8946 16.5196 31 16.2652 31 16V14C31 13.7348 30.8946 13.4804 30.7071 13.2929C30.5196 13.1054 30.2652 13 30 13C29.7348 13 29.4804 13.1054 29.2929 13.2929C29.1054 13.4804 29 13.7348 29 14V16C29 16.2652 29.1054 16.5196 29.2929 16.7071C29.4804 16.8946 29.7348 17 30 17Z" fill="white"/>
<path d="M30 45C29.7348 45 29.4804 45.1054 29.2929 45.2929C29.1054 45.4804 29 45.7348 29 46V48C29 48.2652 29.1054 48.5196 29.2929 48.7071C29.4804 48.8946 29.7348 49 30 49C30.2652 49 30.5196 48.8946 30.7071 48.7071C30.8946 48.5196 31 48.2652 31 48V46C31 45.7348 30.8946 45.4804 30.7071 45.2929C30.5196 45.1054 30.2652 45 30 45Z" fill="white"/>
<path d="M31 24V22C31 21.7348 30.8946 21.4804 30.7071 21.2929C30.5196 21.1054 30.2652 21 30 21C29.7348 21 29.4804 21.1054 29.2929 21.2929C29.1054 21.4804 29 21.7348 29 22V24C29 24.2652 29.1054 24.5196 29.2929 24.7071C29.4804 24.8946 29.7348 25 30 25C30.2652 25 30.5196 24.8946 30.7071 24.7071C30.8946 24.5196 31 24.2652 31 24Z" fill="white"/>
<path d="M30 37C29.7348 37 29.4804 37.1054 29.2929 37.2929C29.1054 37.4804 29 37.7348 29 38V40C29 40.2652 29.1054 40.5196 29.2929 40.7071C29.4804 40.8946 29.7348 41 30 41C30.2652 41 30.5196 40.8946 30.7071 40.7071C30.8946 40.5196 31 40.2652 31 40V38C31 37.7348 30.8946 37.4804 30.7071 37.2929C30.5196 37.1054 30.2652 37 30 37Z" fill="white"/>
<path d="M54 69H52C51.7348 69 51.4804 69.1054 51.2929 69.2929C51.1054 69.4804 51 69.7348 51 70C51 70.2652 51.1054 70.5196 51.2929 70.7071C51.4804 70.8946 51.7348 71 52 71H54C54.2652 71 54.5196 70.8946 54.7071 70.7071C54.8946 70.5196 55 70.2652 55 70C55 69.7348 54.8946 69.4804 54.7071 69.2929C54.5196 69.1054 54.2652 69 54 69Z" fill="white"/>
<path d="M62 69H60C59.7348 69 59.4804 69.1054 59.2929 69.2929C59.1054 69.4804 59 69.7348 59 70C59 70.2652 59.1054 70.5196 59.2929 70.7071C59.4804 70.8946 59.7348 71 60 71H62C62.2652 71 62.5196 70.8946 62.7071 70.7071C62.8946 70.5196 63 70.2652 63 70C63 69.7348 62.8946 69.4804 62.7071 69.2929C62.5196 69.1054 62.2652 69 62 69Z" fill="white"/>
<path d="M78 69H76C75.7348 69 75.4804 69.1054 75.2929 69.2929C75.1054 69.4804 75 69.7348 75 70C75 70.2652 75.1054 70.5196 75.2929 70.7071C75.4804 70.8946 75.7348 71 76 71H78C78.2652 71 78.5196 70.8946 78.7071 70.7071C78.8946 70.5196 79 70.2652 79 70C79 69.7348 78.8946 69.4804 78.7071 69.2929C78.5196 69.1054 78.2652 69 78 69Z" fill="white"/>
<path d="M86 69H84C83.7348 69 83.4804 69.1054 83.2929 69.2929C83.1054 69.4804 83 69.7348 83 70C83 70.2652 83.1054 70.5196 83.2929 70.7071C83.4804 70.8946 83.7348 71 84 71H86C86.2652 71 86.5196 70.8946 86.7071 70.7071C86.8946 70.5196 87 70.2652 87 70C87 69.7348 86.8946 69.4804 86.7071 69.2929C86.5196 69.1054 86.2652 69 86 69Z" fill="white"/>
<path d="M46 69H44C43.7348 69 43.4804 69.1054 43.2929 69.2929C43.1054 69.4804 43 69.7348 43 70C43 70.2652 43.1054 70.5196 43.2929 70.7071C43.4804 70.8946 43.7348 71 44 71H46C46.2652 71 46.5196 70.8946 46.7071 70.7071C46.8946 70.5196 47 70.2652 47 70C47 69.7348 46.8946 69.4804 46.7071 69.2929C46.5196 69.1054 46.2652 69 46 69Z" fill="white"/>
<path d="M38 69H36C35.7348 69 35.4804 69.1054 35.2929 69.2929C35.1054 69.4804 35 69.7348 35 70C35 70.2652 35.1054 70.5196 35.2929 70.7071C35.4804 70.8946 35.7348 71 36 71H38C38.2652 71 38.5196 70.8946 38.7071 70.7071C38.8946 70.5196 39 70.2652 39 70C39 69.7348 38.8946 69.4804 38.7071 69.2929C38.5196 69.1054 38.2652 69 38 69Z" fill="white"/>
<path d="M30.9228 69.6177C30.86 69.4664 30.761 69.3328 30.6344 69.2287C30.5078 69.1246 30.3576 69.0533 30.197 69.0209C30.0364 68.9885 29.8702 68.9962 29.7133 69.0432C29.5563 69.0901 29.4132 69.175 29.2968 69.2902L29.2928 69.2929L27.8786 70.707C27.7857 70.7999 27.7121 70.9101 27.6618 71.0315C27.6116 71.1528 27.5857 71.2828 27.5857 71.4142C27.5857 71.5455 27.6116 71.6755 27.6618 71.7968C27.7121 71.9182 27.7857 72.0284 27.8786 72.1213C27.9715 72.2141 28.0817 72.2878 28.203 72.338C28.3244 72.3883 28.4544 72.4141 28.5857 72.4141C28.717 72.4141 28.8471 72.3883 28.9684 72.338C29.0897 72.2877 29.2 72.2141 29.2928 72.1212L30.7071 70.707C30.8462 70.5668 30.9409 70.3887 30.9793 70.1949C31.0176 70.0012 30.998 69.8004 30.9228 69.6177Z" fill="white"/>
<path d="M23.636 74.9496L22.2217 76.3639C22.0355 76.5517 21.9314 76.8057 21.9319 77.0701C21.9325 77.3346 22.0379 77.588 22.2249 77.775C22.4119 77.962 22.6653 78.0673 22.9298 78.0679C23.1943 78.0685 23.4482 77.9642 23.636 77.7781L25.0502 76.3639C25.2378 76.1764 25.3431 75.922 25.3431 75.6568C25.3431 75.3916 25.2378 75.1372 25.0502 74.9497C24.8627 74.7621 24.6083 74.6567 24.3431 74.6567C24.0779 74.6567 23.8235 74.7621 23.636 74.9496Z" fill="white"/>
<path d="M17.9791 80.6066L16.5649 82.0209C16.472 82.1137 16.3983 82.224 16.3481 82.3453C16.2978 82.4666 16.272 82.5967 16.272 82.728C16.272 82.8593 16.2978 82.9893 16.3481 83.1107C16.3984 83.232 16.472 83.3422 16.5649 83.4351C16.6577 83.5279 16.768 83.6016 16.8893 83.6518C17.0106 83.7021 17.1407 83.728 17.272 83.728C17.4033 83.728 17.5334 83.7021 17.6547 83.6518C17.776 83.6016 17.8862 83.5279 17.9791 83.435L19.3933 82.0209C19.5809 81.8333 19.6862 81.579 19.6862 81.3137C19.6862 81.0485 19.5809 80.7942 19.3933 80.6066C19.2058 80.4191 18.9514 80.3137 18.6862 80.3137C18.421 80.3137 18.1666 80.4191 17.9791 80.6066Z" fill="white"/>
<path d="M12.3223 86.2635L10.908 87.6777C10.7205 87.8653 10.6151 88.1196 10.6151 88.3849C10.6151 88.6501 10.7205 88.9044 10.908 89.092C11.0956 89.2795 11.3499 89.3848 11.6151 89.3848C11.8804 89.3848 12.1347 89.2795 12.3222 89.0919L13.7365 87.6777C13.8297 87.5849 13.9037 87.4746 13.9542 87.3532C14.0047 87.2318 14.0308 87.1016 14.0309 86.9701C14.0311 86.8386 14.0053 86.7083 13.955 86.5868C13.9048 86.4653 13.831 86.3549 13.738 86.2619C13.645 86.1689 13.5346 86.0951 13.4131 86.0449C13.2916 85.9946 13.1613 85.9688 13.0298 85.969C12.8983 85.9691 12.7681 85.9952 12.6467 86.0458C12.5253 86.0963 12.415 86.1703 12.3223 86.2635Z" fill="white"/>
</svg>
