<svg width="80" height="93" viewBox="0 0 80 93" fill="none" xmlns="http://www.w3.org/2000/svg">
<path fill-rule="evenodd" clip-rule="evenodd" d="M60 46.121C60 36.8968 55.5556 29.21 48.8889 25.6228V36.8968L60 49.7082V46.121ZM71.1111 46.121C71.1111 50.7331 70.2222 55.3452 68.8889 59.4449L75.5556 67.1317C78.6667 60.9823 80 53.2954 80 45.6086C80 23.573 66.6667 5.12456 48.8889 0.512456V11.274C61.7778 16.3986 71.1111 29.7224 71.1111 46.121ZM5.77778 0L0 6.66193L20.8889 30.7474H0V61.4947H17.7778L40 87.1175V52.783L59.1111 74.8186C56 77.3809 52.8889 79.4307 48.8889 80.968V91.7296C55.1111 90.1923 60.4444 87.1175 65.3333 82.5054L74.2222 92.7545L80 86.0926L40 39.9716L5.77778 0ZM40 5.12456L30.6667 15.8861L40 26.6477V5.12456Z" fill="white"/>
</svg>
