<svg width="80" height="85" viewBox="0 0 80 85" fill="none" xmlns="http://www.w3.org/2000/svg">
<g clip-path="url(#clip0_123_3)">
<path d="M14.2783 0.39525C14.2136 -0.13175 13.3438 -0.13175 13.2791 0.39525C11.1072 17.8849 0 21.488 0 33.643C0 41.1536 6.30808 47.2413 13.7779 47.2413C21.2511 47.2413 27.5574 41.1536 27.5574 33.643C27.5583 21.488 16.4511 17.8849 14.2783 0.39525ZM66.7217 0.39525C66.6553 -0.13175 65.7872 -0.13175 65.7209 0.39525C63.5506 17.8849 52.4434 21.488 52.4434 33.643C52.4434 41.1536 58.7498 47.2413 66.223 47.2413C73.6936 47.2413 80 41.1536 80 33.643C80 21.488 68.8945 17.8849 66.7217 0.39525ZM39.5013 38.1548C37.3285 55.6453 26.2213 59.2467 26.2213 71.4017C26.2221 78.9123 32.5285 85 40 85C47.4715 85 53.7779 78.9123 53.7779 71.4017C53.7779 59.2467 42.6723 55.6453 40.4996 38.1548C40.434 37.627 39.5677 37.627 39.5013 38.1548Z" fill="white"/>
</g>
<defs>
<clipPath id="clip0_123_3">
<rect width="80" height="85" fill="white"/>
</clipPath>
</defs>
</svg>
