<svg width="90" height="125" viewBox="0 0 90 125" fill="none" xmlns="http://www.w3.org/2000/svg">
<path d="M13.1163 49.7155H40.6595V13.3152H13.1163V49.7155ZM14.6976 15.4049H39.0783V47.6254H14.6976V15.4049Z" fill="white"/>
<path d="M49.3379 49.7155H76.8837V13.3152H49.3379V49.7155ZM50.9191 15.4049H75.3023V47.6254H50.9191V15.4049Z" fill="white"/>
<path d="M76.8837 61.1841H49.3379V97.5878H76.8837V61.1841ZM75.3025 95.4981H50.9191V63.2735H75.3023V95.4981H75.3025Z" fill="white"/>
<path d="M40.6595 61.1841H13.1163V97.5878H40.6595V61.1841ZM39.0783 95.4981H14.6976V63.2735H39.0783V95.4981Z" fill="white"/>
<path d="M86.5046 112.367C87.2603 111.294 87.7265 109.861 87.7265 108.283C87.7265 104.971 85.688 102.277 83.1824 102.277H82.0134V56.4942V54.4045V8.6248H84.4634C86.2628 8.6248 87.7265 6.69005 87.7265 4.3124C87.7265 1.93446 86.2628 0 84.4634 0H5.53636C3.73724 0 2.27327 1.93475 2.27327 4.3124C2.27327 6.69005 3.73724 8.6248 5.53636 8.6248H7.98664V54.4045V56.4942V102.277H6.81761C4.31177 102.277 2.27327 104.971 2.27327 108.283C2.27327 109.861 2.73974 111.294 3.49522 112.367C1.4945 112.995 0 115.371 0 118.204C0 121.516 2.03872 124.21 4.54434 124.21H85.4554C87.9615 124.21 90 121.516 90 118.204C90 115.371 88.5057 112.995 86.5046 112.367ZM5.53636 6.53506C4.60891 6.53506 3.85452 5.5378 3.85452 4.3124C3.85452 3.08671 4.60891 2.08973 5.53636 2.08973H84.4636C85.3911 2.08973 86.1455 3.08671 86.1455 4.3124C86.1455 5.53809 85.3909 6.53506 84.4636 6.53506H5.53636ZM45.7893 54.4045V8.6248H80.4323V54.4045H45.7893ZM80.4323 56.4942V102.277H45.7893V56.4942H80.4323ZM9.56789 54.4045V8.6248H44.2081V54.4045H9.56789ZM44.2081 56.4942V102.277H9.56789V56.4942H44.2081ZM6.81761 104.367H7.98664H44.2083H45.7895H82.0136H83.1826C84.8161 104.367 86.1455 106.124 86.1455 108.283C86.1455 110.442 84.8161 112.199 83.1826 112.199H6.81761C5.18387 112.199 3.85452 110.442 3.85452 108.283C3.85452 106.124 5.18365 104.367 6.81761 104.367ZM85.4554 122.121H4.54434C2.9106 122.121 1.58125 120.364 1.58125 118.205C1.58125 116.046 2.9106 114.289 4.54434 114.289H6.81761H83.1826H85.4557C87.0896 114.289 88.419 116.046 88.419 118.205C88.4187 120.364 87.0894 122.121 85.4554 122.121Z" fill="white"/>
</svg>
