<svg width="100" height="100" viewBox="0 0 100 100" fill="none" xmlns="http://www.w3.org/2000/svg">
<path d="M68.75 31.25H0V25H68.75C72.1969 25 75 22.1969 75 18.75C75 15.3031 72.1969 12.5 68.75 12.5C65.3031 12.5 62.5 15.3031 62.5 18.75H56.25C56.25 11.8562 61.8563 6.25 68.75 6.25C75.6438 6.25 81.25 11.8562 81.25 18.75C81.25 25.6438 75.6438 31.25 68.75 31.25Z" fill="white"/>
<path d="M90.625 56.25H87.5V50H90.625C92.35 50 93.75 48.5969 93.75 46.875C93.75 45.1531 92.35 43.75 90.625 43.75H56.25V37.5H90.625C95.7938 37.5 100 41.7062 100 46.875C100 52.0437 95.7938 56.25 90.625 56.25Z" fill="white"/>
<path d="M71.875 68.75H68.75V62.5H71.875C73.6 62.5 75 61.0969 75 59.375C75 57.6531 73.6 56.25 71.875 56.25H0V50H71.875C77.0437 50 81.25 54.2062 81.25 59.375C81.25 64.5437 77.0437 68.75 71.875 68.75Z" fill="white"/>
<path d="M50 87.5C43.1062 87.5 37.5 81.8938 37.5 75H43.75C43.75 78.4469 46.5531 81.25 50 81.25C53.4469 81.25 56.25 78.4469 56.25 75C56.25 71.5531 53.4469 68.75 50 68.75H12.5V62.5H50C56.8937 62.5 62.5 68.1062 62.5 75C62.5 81.8938 56.8937 87.5 50 87.5Z" fill="white"/>
<path d="M12.5 37.5H6.25V43.75H12.5V37.5Z" fill="white"/>
<path d="M50 37.5H18.75V43.75H50V37.5Z" fill="white"/>
<path d="M6.25 62.5H0V68.75H6.25V62.5Z" fill="white"/>
</svg>
