<svg width="39" height="24" viewBox="0 0 39 24" fill="none" xmlns="http://www.w3.org/2000/svg">
<path d="M27.7927 0.474524C27.662 0.623656 27.5583 0.801084 27.4876 0.996572C27.4168 1.19206 27.3804 1.40174 27.3804 1.61351C27.3804 1.82529 27.4168 2.03497 27.4876 2.23046C27.5583 2.42595 27.662 2.60337 27.7927 2.75251L34.2042 10.1319H1.39381C1.02415 10.1319 0.66963 10.3009 0.408239 10.6017C0.146848 10.9026 0 11.3106 0 11.7361C0 12.1616 0.146848 12.5696 0.408239 12.8704C0.66963 13.1713 1.02415 13.3403 1.39381 13.3403H34.1763L27.7927 20.6716C27.5331 20.9721 27.3874 21.3787 27.3874 21.8025C27.3874 22.2263 27.5331 22.6329 27.7927 22.9335C28.0538 23.2323 28.4071 23.4 28.7753 23.4C29.1435 23.4 29.4968 23.2323 29.7579 22.9335L38.6226 12.7307C38.7419 12.599 38.8369 12.4408 38.9017 12.2657C38.9666 12.0907 39 11.9023 39 11.712C39 11.5217 38.9666 11.3334 38.9017 11.1583C38.8369 10.9833 38.7419 10.8251 38.6226 10.6934L29.7719 0.474524C29.6423 0.324163 29.4882 0.204819 29.3183 0.123375C29.1485 0.0419317 28.9663 0 28.7823 0C28.5983 0 28.4161 0.0419317 28.2463 0.123375C28.0764 0.204819 27.9222 0.324163 27.7927 0.474524Z" fill="white"/>
</svg>
