<svg width="20" height="11" viewBox="0 0 20 11" fill="none" xmlns="http://www.w3.org/2000/svg">
<path d="M14.2527 0.223067C14.1857 0.293172 14.1325 0.376578 14.0962 0.468474C14.0599 0.56037 14.0412 0.658937 14.0412 0.75849C14.0412 0.858042 14.0599 0.95661 14.0962 1.04851C14.1325 1.1404 14.1857 1.22381 14.2527 1.29391L17.5406 4.76285H0.714777C0.525206 4.76285 0.3434 4.8423 0.209353 4.98373C0.0753066 5.12515 0 5.31697 0 5.51697C0 5.71697 0.0753066 5.90879 0.209353 6.05021C0.3434 6.19164 0.525206 6.27109 0.714777 6.27109H17.5263L14.2527 9.7174C14.1195 9.8587 14.0448 10.0498 14.0448 10.2491C14.0448 10.4483 14.1195 10.6394 14.2527 10.7807C14.3866 10.9212 14.5677 11 14.7566 11C14.9454 11 15.1266 10.9212 15.2605 10.7807L19.8065 5.98452C19.8677 5.92259 19.9163 5.84824 19.9496 5.76595C19.9829 5.68365 20 5.59512 20 5.50566C20 5.4162 19.9829 5.32766 19.9496 5.24537C19.9163 5.16308 19.8677 5.08873 19.8065 5.02679L15.2676 0.223067C15.2012 0.152384 15.1221 0.0962825 15.035 0.057997C14.9479 0.0197115 14.8545 0 14.7601 0C14.6658 0 14.5724 0.0197115 14.4853 0.057997C14.3982 0.0962825 14.3191 0.152384 14.2527 0.223067Z" fill="white"/>
</svg>
