<svg width="40" height="40" viewBox="0 0 40 40" fill="none" xmlns="http://www.w3.org/2000/svg">
<path d="M40 0H0V40H40V0Z" fill="#95DC00"/>
<path d="M32 13.6C32 24.4832 20 38.4 20 38.4C20 38.4 8 24.7424 8 13.6C8 6.972 13.372 1.6 20 1.6C26.6272 1.6 32 6.972 32 13.6Z" fill="#95DC00" stroke="white" stroke-width="1.7647" stroke-miterlimit="10" stroke-linejoin="round"/>
<path d="M20 19.2C22.651 19.2 24.8 17.051 24.8 14.4C24.8 11.749 22.651 9.6 20 9.6C17.349 9.6 15.2 11.749 15.2 14.4C15.2 17.051 17.349 19.2 20 19.2Z" fill="#95DC00" stroke="white" stroke-width="1.7647" stroke-miterlimit="10" stroke-linejoin="round"/>
</svg>
