<svg width="20" height="22" viewBox="0 0 20 22" fill="none" xmlns="http://www.w3.org/2000/svg">
<path d="M20 1H0V21H20V1Z" fill="#95DC00"/>
<path d="M16 7.8C16 13.2416 10 20.2 10 20.2C10 20.2 4 13.3712 4 7.8C4 4.486 6.686 1.8 10 1.8C13.3136 1.8 16 4.486 16 7.8Z" fill="#95DC00" stroke="white" stroke-width="1.7647" stroke-miterlimit="10" stroke-linejoin="round"/>
<path d="M9.99998 10.6C11.3255 10.6 12.4 9.52548 12.4 8.2C12.4 6.87452 11.3255 5.8 9.99998 5.8C8.67449 5.8 7.59998 6.87452 7.59998 8.2C7.59998 9.52548 8.67449 10.6 9.99998 10.6Z" fill="#95DC00" stroke="white" stroke-width="1.7647" stroke-miterlimit="10" stroke-linejoin="round"/>
</svg>
