<svg width="151" height="35" viewBox="0 0 151 35" fill="none" xmlns="http://www.w3.org/2000/svg">
<path d="M24.7078 12.8363C24.7078 13.0933 24.5924 13.3504 24.3616 13.6075L19.5206 19.0048L20.6668 26.8439C20.6757 26.8439 20.6801 26.9725 20.6801 27.101C20.6801 27.358 20.6313 27.4864 20.5337 27.6149C20.4449 27.7434 20.3117 27.872 20.1331 27.872C19.9645 27.872 19.7869 27.8721 19.6005 27.7435L13.6122 24.0167L7.62436 27.7435C7.42874 27.8721 7.25088 27.872 7.09088 27.872C6.90414 27.872 6.76189 27.7434 6.66414 27.6149C6.57516 27.4864 6.53077 27.358 6.53077 27.101C6.53077 27.101 6.53965 26.9724 6.5574 26.8439L7.70436 19.0048L2.85002 13.6075C2.62778 13.3504 2.5166 13.0933 2.5166 12.8363C2.5166 12.4507 2.76559 12.1937 3.26345 12.1937L9.9581 11.0373L12.9587 3.96921C13.1273 3.58368 13.3459 3.32666 13.6122 3.32666C13.8785 3.32666 14.0971 3.58368 14.2657 3.96921L17.266 11.0373L23.9611 12.1937C24.4593 12.1937 24.7078 12.4507 24.7078 12.8363Z" fill="#E67E22"/>
<path d="M24.7078 11.5511C24.7078 11.8081 24.5924 12.0653 24.3616 12.3223L19.5206 17.7196L20.6668 25.5587C20.6757 25.5587 20.6801 25.6873 20.6801 25.8158C20.6801 26.0729 20.6313 26.2012 20.5337 26.3298C20.4449 26.4583 20.3117 26.5869 20.1331 26.5869C19.9645 26.5869 19.7869 26.5869 19.6005 26.4584L13.6122 22.7316L7.62436 26.4584C7.42874 26.5869 7.25088 26.5869 7.09088 26.5869C6.90414 26.5869 6.76189 26.4583 6.66414 26.3298C6.57516 26.2012 6.53077 26.0729 6.53077 25.8158C6.53077 25.8158 6.53965 25.6872 6.5574 25.5587L7.70436 17.7196L2.85002 12.3223C2.62778 12.0653 2.5166 11.8081 2.5166 11.5511C2.5166 11.1656 2.76559 10.9086 3.26345 10.9086L9.9581 9.7521L12.9587 2.68405C13.1273 2.29852 13.3459 2.0415 13.6122 2.0415C13.8785 2.0415 14.0971 2.29852 14.2657 2.68405L17.266 9.7521L23.9611 10.9086C24.4593 10.9086 24.7078 11.1656 24.7078 11.5511Z" fill="#F1C40F"/>
<path d="M24.7078 11.5511C24.7078 11.8081 24.5924 12.0653 24.3616 12.3223L19.5206 17.7196L20.6668 25.5587C20.6757 25.5587 20.6801 25.6873 20.6801 25.8158C20.6801 26.0729 20.6313 26.2012 20.5337 26.3298C20.4449 26.4583 20.3117 26.5869 20.1331 26.5869C19.9645 26.5869 19.7869 26.5869 19.6005 26.4584L13.6122 22.7316L7.62436 26.4584C7.42874 26.5869 7.25088 26.5869 7.09088 26.5869C6.90414 26.5869 6.76189 26.4583 6.66414 26.3298C6.57516 26.2012 6.53077 26.0729 6.53077 25.8158C6.53077 25.8158 6.53965 25.6872 6.5574 25.5587L7.70436 17.7196L2.85002 12.3223C2.62778 12.0653 2.5166 11.8081 2.5166 11.5511C2.5166 11.1656 2.76559 10.9086 3.26345 10.9086L9.9581 9.7521L12.9587 2.68405C13.1273 2.29852 13.3459 2.0415 13.6122 2.0415C13.8785 2.0415 14.0971 2.29852 14.2657 2.68405L17.266 9.7521L23.9611 10.9086C24.4593 10.9086 24.7078 11.1656 24.7078 11.5511Z" fill="#F1C40F"/>
<path d="M54.9078 12.8363C54.9078 13.0933 54.7924 13.3504 54.5616 13.6075L49.7206 19.0048L50.8668 26.8439C50.8756 26.8439 50.8801 26.9725 50.8801 27.101C50.8801 27.358 50.8313 27.4864 50.7336 27.6149C50.6448 27.7434 50.5117 27.872 50.3331 27.872C50.1644 27.872 49.9869 27.8721 49.8005 27.7435L43.8122 24.0167L37.8243 27.7435C37.6287 27.8721 37.4508 27.872 37.2908 27.872C37.1041 27.872 36.9618 27.7434 36.8641 27.6149C36.7751 27.4864 36.7307 27.358 36.7307 27.101C36.7307 27.101 36.7396 26.9724 36.7574 26.8439L37.9043 19.0048L33.05 13.6075C32.8277 13.3504 32.7166 13.0933 32.7166 12.8363C32.7166 12.4507 32.9655 12.1937 33.4634 12.1937L40.158 11.0373L43.1586 3.96921C43.3273 3.58368 43.5459 3.32666 43.8122 3.32666C44.0785 3.32666 44.297 3.58368 44.4657 3.96921L47.466 11.0373L54.161 12.1937C54.6592 12.1937 54.9078 12.4507 54.9078 12.8363Z" fill="#E67E22"/>
<path d="M54.9078 11.5511C54.9078 11.8081 54.7924 12.0653 54.5616 12.3223L49.7206 17.7196L50.8668 25.5587C50.8756 25.5587 50.8801 25.6873 50.8801 25.8158C50.8801 26.0729 50.8313 26.2012 50.7336 26.3298C50.6448 26.4583 50.5117 26.5869 50.3331 26.5869C50.1644 26.5869 49.9869 26.5869 49.8005 26.4584L43.8122 22.7316L37.8243 26.4584C37.6287 26.5869 37.4508 26.5869 37.2908 26.5869C37.1041 26.5869 36.9618 26.4583 36.8641 26.3298C36.7751 26.2012 36.7307 26.0729 36.7307 25.8158C36.7307 25.8158 36.7396 25.6872 36.7574 25.5587L37.9043 17.7196L33.05 12.3223C32.8277 12.0653 32.7166 11.8081 32.7166 11.5511C32.7166 11.1656 32.9655 10.9086 33.4634 10.9086L40.158 9.7521L43.1586 2.68405C43.3273 2.29852 43.5459 2.0415 43.8122 2.0415C44.0785 2.0415 44.297 2.29852 44.4657 2.68405L47.466 9.7521L54.161 10.9086C54.6592 10.9086 54.9078 11.1656 54.9078 11.5511Z" fill="#F1C40F"/>
<path d="M54.9078 11.5511C54.9078 11.8081 54.7924 12.0653 54.5616 12.3223L49.7206 17.7196L50.8668 25.5587C50.8756 25.5587 50.8801 25.6873 50.8801 25.8158C50.8801 26.0729 50.8313 26.2012 50.7336 26.3298C50.6448 26.4583 50.5117 26.5869 50.3331 26.5869C50.1644 26.5869 49.9869 26.5869 49.8005 26.4584L43.8122 22.7316L37.8243 26.4584C37.6287 26.5869 37.4508 26.5869 37.2908 26.5869C37.1041 26.5869 36.9618 26.4583 36.8641 26.3298C36.7751 26.2012 36.7307 26.0729 36.7307 25.8158C36.7307 25.8158 36.7396 25.6872 36.7574 25.5587L37.9043 17.7196L33.05 12.3223C32.8277 12.0653 32.7166 11.8081 32.7166 11.5511C32.7166 11.1656 32.9655 10.9086 33.4634 10.9086L40.158 9.7521L43.1586 2.68405C43.3273 2.29852 43.5459 2.0415 43.8122 2.0415C44.0785 2.0415 44.297 2.29852 44.4657 2.68405L47.466 9.7521L54.161 10.9086C54.6592 10.9086 54.9078 11.1656 54.9078 11.5511Z" fill="#F1C40F"/>
<path d="M85.1077 12.8363C85.1077 13.0933 84.9923 13.3504 84.7615 13.6075L79.9205 19.0048L81.0667 26.8439C81.0756 26.8439 81.08 26.9725 81.08 27.101C81.08 27.358 81.0312 27.4864 80.9336 27.6149C80.8448 27.7434 80.7117 27.872 80.533 27.872C80.3644 27.872 80.1868 27.8721 80.0004 27.7435L74.0121 24.0167L68.0243 27.7435C67.8286 27.8721 67.6508 27.872 67.4908 27.872C67.304 27.872 67.1618 27.7434 67.064 27.6149C66.9751 27.4864 66.9307 27.358 66.9307 27.101C66.9307 27.101 66.9396 26.9724 66.9573 26.8439L68.1043 19.0048L63.2499 13.6075C63.0277 13.3504 62.9165 13.0933 62.9165 12.8363C62.9165 12.4507 63.1655 12.1937 63.6633 12.1937L70.358 11.0373L73.3586 3.96921C73.5272 3.58368 73.7458 3.32666 74.0121 3.32666C74.2784 3.32666 74.497 3.58368 74.6656 3.96921L77.6659 11.0373L84.361 12.1937C84.8592 12.1937 85.1077 12.4507 85.1077 12.8363Z" fill="#E67E22"/>
<path d="M85.1077 11.5511C85.1077 11.8081 84.9923 12.0653 84.7615 12.3223L79.9205 17.7196L81.0667 25.5587C81.0756 25.5587 81.08 25.6873 81.08 25.8158C81.08 26.0729 81.0312 26.2012 80.9336 26.3298C80.8448 26.4583 80.7117 26.5869 80.533 26.5869C80.3644 26.5869 80.1868 26.5869 80.0004 26.4584L74.0121 22.7316L68.0243 26.4584C67.8286 26.5869 67.6508 26.5869 67.4908 26.5869C67.304 26.5869 67.1618 26.4583 67.064 26.3298C66.9751 26.2012 66.9307 26.0729 66.9307 25.8158C66.9307 25.8158 66.9396 25.6872 66.9573 25.5587L68.1043 17.7196L63.2499 12.3223C63.0277 12.0653 62.9165 11.8081 62.9165 11.5511C62.9165 11.1656 63.1655 10.9086 63.6633 10.9086L70.358 9.7521L73.3586 2.68405C73.5272 2.29852 73.7458 2.0415 74.0121 2.0415C74.2784 2.0415 74.497 2.29852 74.6656 2.68405L77.6659 9.7521L84.361 10.9086C84.8592 10.9086 85.1077 11.1656 85.1077 11.5511Z" fill="#F1C40F"/>
<path d="M85.1077 11.5511C85.1077 11.8081 84.9923 12.0653 84.7615 12.3223L79.9205 17.7196L81.0667 25.5587C81.0756 25.5587 81.08 25.6873 81.08 25.8158C81.08 26.0729 81.0312 26.2012 80.9336 26.3298C80.8448 26.4583 80.7117 26.5869 80.533 26.5869C80.3644 26.5869 80.1868 26.5869 80.0004 26.4584L74.0121 22.7316L68.0243 26.4584C67.8286 26.5869 67.6508 26.5869 67.4908 26.5869C67.304 26.5869 67.1618 26.4583 67.064 26.3298C66.9751 26.2012 66.9307 26.0729 66.9307 25.8158C66.9307 25.8158 66.9396 25.6872 66.9573 25.5587L68.1043 17.7196L63.2499 12.3223C63.0277 12.0653 62.9165 11.8081 62.9165 11.5511C62.9165 11.1656 63.1655 10.9086 63.6633 10.9086L70.358 9.7521L73.3586 2.68405C73.5272 2.29852 73.7458 2.0415 74.0121 2.0415C74.2784 2.0415 74.497 2.29852 74.6656 2.68405L77.6659 9.7521L84.361 10.9086C84.8592 10.9086 85.1077 11.1656 85.1077 11.5511Z" fill="#F1C40F"/>
<path d="M115.308 12.8363C115.308 13.0933 115.192 13.3504 114.962 13.6075L110.12 19.0048L111.267 26.8439C111.276 26.8439 111.28 26.9725 111.28 27.101C111.28 27.358 111.231 27.4864 111.134 27.6149C111.045 27.7434 110.912 27.872 110.733 27.872C110.564 27.872 110.387 27.8721 110.2 27.7435L104.212 24.0167L98.2242 27.7435C98.0286 27.8721 97.8507 27.872 97.6907 27.872C97.504 27.872 97.3617 27.7434 97.264 27.6149C97.175 27.4864 97.1306 27.358 97.1306 27.101C97.1306 27.101 97.1395 26.9724 97.1573 26.8439L98.3042 19.0048L93.4499 13.6075C93.2276 13.3504 93.1165 13.0933 93.1165 12.8363C93.1165 12.4507 93.3654 12.1937 93.8633 12.1937L100.558 11.0373L103.559 3.96921C103.727 3.58368 103.946 3.32666 104.212 3.32666C104.478 3.32666 104.697 3.58368 104.866 3.96921L107.866 11.0373L114.561 12.1937C115.059 12.1937 115.308 12.4507 115.308 12.8363Z" fill="#E67E22"/>
<path d="M115.308 11.5511C115.308 11.8081 115.192 12.0653 114.962 12.3223L110.12 17.7196L111.267 25.5587C111.276 25.5587 111.28 25.6873 111.28 25.8158C111.28 26.0729 111.231 26.2012 111.134 26.3298C111.045 26.4583 110.912 26.5869 110.733 26.5869C110.564 26.5869 110.387 26.5869 110.2 26.4584L104.212 22.7316L98.2242 26.4584C98.0286 26.5869 97.8507 26.5869 97.6907 26.5869C97.504 26.5869 97.3617 26.4583 97.264 26.3298C97.175 26.2012 97.1306 26.0729 97.1306 25.8158C97.1306 25.8158 97.1395 25.6872 97.1573 25.5587L98.3042 17.7196L93.4499 12.3223C93.2276 12.0653 93.1165 11.8081 93.1165 11.5511C93.1165 11.1656 93.3654 10.9086 93.8633 10.9086L100.558 9.7521L103.559 2.68405C103.727 2.29852 103.946 2.0415 104.212 2.0415C104.478 2.0415 104.697 2.29852 104.866 2.68405L107.866 9.7521L114.561 10.9086C115.059 10.9086 115.308 11.1656 115.308 11.5511Z" fill="#F1C40F"/>
<path d="M115.308 11.5511C115.308 11.8081 115.192 12.0653 114.962 12.3223L110.12 17.7196L111.267 25.5587C111.276 25.5587 111.28 25.6873 111.28 25.8158C111.28 26.0729 111.231 26.2012 111.134 26.3298C111.045 26.4583 110.912 26.5869 110.733 26.5869C110.564 26.5869 110.387 26.5869 110.2 26.4584L104.212 22.7316L98.2242 26.4584C98.0286 26.5869 97.8507 26.5869 97.6907 26.5869C97.504 26.5869 97.3617 26.4583 97.264 26.3298C97.175 26.2012 97.1306 26.0729 97.1306 25.8158C97.1306 25.8158 97.1395 25.6872 97.1573 25.5587L98.3042 17.7196L93.4499 12.3223C93.2276 12.0653 93.1165 11.8081 93.1165 11.5511C93.1165 11.1656 93.3654 10.9086 93.8633 10.9086L100.558 9.7521L103.559 2.68405C103.727 2.29852 103.946 2.0415 104.212 2.0415C104.478 2.0415 104.697 2.29852 104.866 2.68405L107.866 9.7521L114.561 10.9086C115.059 10.9086 115.308 11.1656 115.308 11.5511Z" fill="#F1C40F"/>
<path d="M145.508 12.8363C145.508 13.0933 145.392 13.3504 145.162 13.6075L140.321 19.0048L141.467 26.8439C141.476 26.8439 141.48 26.9725 141.48 27.101C141.48 27.358 141.431 27.4864 141.334 27.6149C141.245 27.7434 141.112 27.872 140.933 27.872C140.765 27.872 140.587 27.8721 140.401 27.7435L134.412 24.0167L128.424 27.7435C128.229 27.8721 128.051 27.872 127.891 27.872C127.704 27.872 127.562 27.7434 127.464 27.6149C127.375 27.4864 127.331 27.358 127.331 27.101C127.331 27.101 127.34 26.9724 127.357 26.8439L128.504 19.0048L123.65 13.6075C123.428 13.3504 123.317 13.0933 123.317 12.8363C123.317 12.4507 123.566 12.1937 124.063 12.1937L130.758 11.0373L133.759 3.96921C133.927 3.58368 134.146 3.32666 134.412 3.32666C134.679 3.32666 134.897 3.58368 135.066 3.96921L138.066 11.0373L144.761 12.1937C145.259 12.1937 145.508 12.4507 145.508 12.8363Z" fill="#E67E22"/>
<path d="M145.508 11.5511C145.508 11.8081 145.392 12.0653 145.162 12.3223L140.321 17.7196L141.467 25.5587C141.476 25.5587 141.48 25.6873 141.48 25.8158C141.48 26.0729 141.431 26.2012 141.334 26.3298C141.245 26.4583 141.112 26.5869 140.933 26.5869C140.765 26.5869 140.587 26.5869 140.401 26.4584L134.412 22.7316L128.424 26.4584C128.229 26.5869 128.051 26.5869 127.891 26.5869C127.704 26.5869 127.562 26.4583 127.464 26.3298C127.375 26.2012 127.331 26.0729 127.331 25.8158C127.331 25.8158 127.34 25.6872 127.357 25.5587L128.504 17.7196L123.65 12.3223C123.428 12.0653 123.317 11.8081 123.317 11.5511C123.317 11.1656 123.566 10.9086 124.063 10.9086L130.758 9.7521L133.759 2.68405C133.927 2.29852 134.146 2.0415 134.412 2.0415C134.679 2.0415 134.897 2.29852 135.066 2.68405L138.066 9.7521L144.761 10.9086C145.259 10.9086 145.508 11.1656 145.508 11.5511Z" fill="#F1C40F"/>
<path d="M145.508 11.5511C145.508 11.8081 145.392 12.0653 145.162 12.3223L140.321 17.7196L141.467 25.5587C141.476 25.5587 141.48 25.6873 141.48 25.8158C141.48 26.0729 141.431 26.2012 141.334 26.3298C141.245 26.4583 141.112 26.5869 140.933 26.5869C140.765 26.5869 140.587 26.5869 140.401 26.4584L134.412 22.7316L128.424 26.4584C128.229 26.5869 128.051 26.5869 127.891 26.5869C127.704 26.5869 127.562 26.4583 127.464 26.3298C127.375 26.2012 127.331 26.0729 127.331 25.8158C127.331 25.8158 127.34 25.6872 127.357 25.5587L128.504 17.7196L123.65 12.3223C123.428 12.0653 123.317 11.8081 123.317 11.5511C123.317 11.1656 123.566 10.9086 124.063 10.9086L130.758 9.7521L133.759 2.68405C133.927 2.29852 134.146 2.0415 134.412 2.0415C134.679 2.0415 134.897 2.29852 135.066 2.68405L138.066 9.7521L144.761 10.9086C145.259 10.9086 145.508 11.1656 145.508 11.5511Z" fill="#F1C40F"/>
</svg>
